<mxfile host="Electron" agent="Mozilla/5.0 (Windows NT 10.0; Win64; x64) AppleWebKit/537.36 (KHTML, like Gecko) draw.io/24.7.5 Chrome/126.0.6478.183 Electron/31.3.0 Safari/537.36" version="24.7.5">
  <diagram name="Page-1" id="dA9JNssJtsCQuoVjFfTI">
    <mxGraphModel dx="989" dy="577" grid="1" gridSize="10" guides="1" tooltips="1" connect="1" arrows="1" fold="1" page="1" pageScale="1" pageWidth="850" pageHeight="1100" math="0" shadow="0">
      <root>
        <mxCell id="0" />
        <mxCell id="1" parent="0" />
        <mxCell id="nNNhGmp2MEw7Xm_Nho5F-4" value="EC2 CentOS Server" style="outlineConnect=0;dashed=0;verticalLabelPosition=bottom;verticalAlign=top;align=center;html=1;shape=mxgraph.aws3.ec2;fillColor=#F58534;gradientColor=none;" vertex="1" parent="1">
          <mxGeometry x="580" y="90" width="76.5" height="93" as="geometry" />
        </mxCell>
        <mxCell id="nNNhGmp2MEw7Xm_Nho5F-5" value="Ansible Machine" style="whiteSpace=wrap;html=1;aspect=fixed;" vertex="1" parent="1">
          <mxGeometry x="210" y="96.5" width="80" height="80" as="geometry" />
        </mxCell>
        <mxCell id="nNNhGmp2MEw7Xm_Nho5F-6" value="Ansible Playbook execution&lt;br&gt;using .pem" style="endArrow=classic;startArrow=classic;html=1;rounded=0;exitX=1;exitY=0.5;exitDx=0;exitDy=0;entryX=0;entryY=0.5;entryDx=0;entryDy=0;entryPerimeter=0;" edge="1" parent="1" source="nNNhGmp2MEw7Xm_Nho5F-5" target="nNNhGmp2MEw7Xm_Nho5F-4">
          <mxGeometry width="50" height="50" relative="1" as="geometry">
            <mxPoint x="350" y="230" as="sourcePoint" />
            <mxPoint x="400" y="180" as="targetPoint" />
          </mxGeometry>
        </mxCell>
        <mxCell id="nNNhGmp2MEw7Xm_Nho5F-7" value="DockerHub" style="ellipse;whiteSpace=wrap;html=1;" vertex="1" parent="1">
          <mxGeometry x="360" y="310" width="120" height="80" as="geometry" />
        </mxCell>
        <mxCell id="nNNhGmp2MEw7Xm_Nho5F-8" value="GitHub" style="ellipse;whiteSpace=wrap;html=1;" vertex="1" parent="1">
          <mxGeometry x="730" y="310" width="120" height="80" as="geometry" />
        </mxCell>
        <mxCell id="nNNhGmp2MEw7Xm_Nho5F-9" value="Docker-Compose pulling" style="endArrow=classic;startArrow=classic;html=1;rounded=0;exitX=0.5;exitY=0;exitDx=0;exitDy=0;" edge="1" parent="1" source="nNNhGmp2MEw7Xm_Nho5F-8" target="nNNhGmp2MEw7Xm_Nho5F-4">
          <mxGeometry width="50" height="50" relative="1" as="geometry">
            <mxPoint x="570" y="350" as="sourcePoint" />
            <mxPoint x="620" y="300" as="targetPoint" />
          </mxGeometry>
        </mxCell>
        <mxCell id="nNNhGmp2MEw7Xm_Nho5F-11" value="Docker Images pulling" style="endArrow=classic;startArrow=classic;html=1;rounded=0;exitX=0.5;exitY=0;exitDx=0;exitDy=0;" edge="1" parent="1" source="nNNhGmp2MEw7Xm_Nho5F-7" target="nNNhGmp2MEw7Xm_Nho5F-4">
          <mxGeometry width="50" height="50" relative="1" as="geometry">
            <mxPoint x="510" y="291.5" as="sourcePoint" />
            <mxPoint x="550" y="250" as="targetPoint" />
          </mxGeometry>
        </mxCell>
        <mxCell id="nNNhGmp2MEw7Xm_Nho5F-12" value="&lt;font style=&quot;font-size: 7px;&quot;&gt;Neptune&lt;/font&gt;" style="rhombus;whiteSpace=wrap;html=1;" vertex="1" parent="1">
          <mxGeometry x="656.5" width="53.5" height="60" as="geometry" />
        </mxCell>
        <mxCell id="nNNhGmp2MEw7Xm_Nho5F-13" value="&lt;font style=&quot;font-size: 7px;&quot;&gt;Hercules&lt;/font&gt;" style="rhombus;whiteSpace=wrap;html=1;" vertex="1" parent="1">
          <mxGeometry x="530" width="50" height="60" as="geometry" />
        </mxCell>
        <mxCell id="nNNhGmp2MEw7Xm_Nho5F-14" value="" style="endArrow=classic;html=1;rounded=0;entryX=0.319;entryY=0.824;entryDx=0;entryDy=0;entryPerimeter=0;" edge="1" parent="1" source="nNNhGmp2MEw7Xm_Nho5F-4" target="nNNhGmp2MEw7Xm_Nho5F-12">
          <mxGeometry width="50" height="50" relative="1" as="geometry">
            <mxPoint x="640" y="110" as="sourcePoint" />
            <mxPoint x="690" y="60" as="targetPoint" />
          </mxGeometry>
        </mxCell>
        <mxCell id="nNNhGmp2MEw7Xm_Nho5F-15" value="" style="endArrow=classic;html=1;rounded=0;" edge="1" parent="1" source="nNNhGmp2MEw7Xm_Nho5F-4" target="nNNhGmp2MEw7Xm_Nho5F-13">
          <mxGeometry width="50" height="50" relative="1" as="geometry">
            <mxPoint x="530" y="90" as="sourcePoint" />
            <mxPoint x="600" y="60" as="targetPoint" />
          </mxGeometry>
        </mxCell>
      </root>
    </mxGraphModel>
  </diagram>
</mxfile>
